HIERARCHY
ROOT Hips
{
	OFFSET -0.179506 -22.333345 2.821913
	CHANNELS 6 Xposition Yposition Zposition Zrotation Yrotation Xrotation 
	JOINT LeftUpLeg
	{
		OFFSET 6.951974 -9.140623 -0.681533
		CHANNELS 3 Zrotation Yrotation Xrotation
		JOINT LeftLeg
		{
			OFFSET 3.427654 -37.519855 -0.449580
			CHANNELS 3 Zrotation Yrotation Xrotation
			JOINT LeftFoot
			{
				OFFSET -1.359570 -39.796059 -4.369333
				CHANNELS 3 Zrotation Yrotation Xrotation
				JOINT LeftToe
				{
					OFFSET 2.635814 -5.579078 11.928840
					CHANNELS 3 Zrotation Yrotation Xrotation
					End Site
					{
						OFFSET 0.000000 0.000000 0.000000
					}
				}
			}
		}
	}
	JOINT RightUpLeg
	{
		OFFSET -6.767048 -9.052170 -0.431982
		CHANNELS 3 Zrotation Yrotation Xrotation
		JOINT RightLeg
		{
			OFFSET -3.829005 -38.256897 -0.885003
			CHANNELS 3 Zrotation Yrotation Xrotation
			JOINT RightFoot
			{
				OFFSET 1.577377 -39.841461 -4.231180
				CHANNELS 3 Zrotation Yrotation Xrotation
				JOINT RightToe
				{
					OFFSET -2.537174 -4.814398 12.334795
					CHANNELS 3 Zrotation Yrotation Xrotation
					End Site
					{
						OFFSET 0.000000 0.000000 0.000000
					}
				}
			}
		}
	}
	JOINT Spine
	{
		OFFSET -0.253288 10.896323 -2.669631
		CHANNELS 3 Zrotation Yrotation Xrotation
		JOINT Spine1
		{
			OFFSET 0.548704 13.518043 0.109247
			CHANNELS 3 Zrotation Yrotation Xrotation
			JOINT Spine2
			{
				OFFSET 0.145701 5.292222 2.542457
				CHANNELS 3 Zrotation Yrotation Xrotation
				JOINT Neck
				{
					OFFSET -0.277840 21.387037 -4.285703
					CHANNELS 3 Zrotation Yrotation Xrotation
					JOINT Head
					{
						OFFSET 0.515184 6.496960 5.134897
						CHANNELS 3 Zrotation Yrotation Xrotation
						End Site
						{
							OFFSET 0.000000 0.000000 0.000000
						}
					}
				}
				JOINT LeftShoulder
				{
					OFFSET 7.884473 12.174932 -3.408961
					CHANNELS 3 Zrotation Yrotation Xrotation
					JOINT LeftArm
					{
						OFFSET 9.097692 3.046888 -0.886815
						CHANNELS 3 Zrotation Yrotation Xrotation
						JOINT LeftForeArm
						{
							OFFSET 25.961220 -1.277207 -2.745643
							CHANNELS 3 Zrotation Yrotation Xrotation
							JOINT LeftHand
							{
								OFFSET 24.923361 0.898606 -0.117091
								CHANNELS 3 Zrotation Yrotation Xrotation
								End Site
								{
									OFFSET 0.000000 0.000000 0.000000
								}
							}
						}
					}
				}
				JOINT RightShoulder
				{
					OFFSET -8.175920 11.883285 -3.861528
					CHANNELS 3 Zrotation Yrotation Xrotation
					JOINT RightArm
					{
						OFFSET -9.601238 3.255117 -0.914307
						CHANNELS 3 Zrotation Yrotation Xrotation
						JOINT RightForeArm
						{
							OFFSET -25.374195 -1.332924 -2.140099
							CHANNELS 3 Zrotation Yrotation Xrotation
							JOINT RightHand
							{
								OFFSET -25.529810 0.777228 -0.555919
								CHANNELS 3 Zrotation Yrotation Xrotation
								End Site
								{
									OFFSET 0.000000 0.000000 0.000000
								}
							}
						}
					}
				}
			}
		}
	}
}
MOTION
Frames: 17
Frame Time: 0.033333
-43.345039 -275.585632 91.316200 -177.255370 1.371732 88.054660 -1.326528 2.246306 2.860609 -2.775592 -3.111043 6.460444 6.790326 11.718248 -17.083590 nan nan nan 0.819480 -2.876864 4.628541 3.990800 1.880002 0.715634 2.080997 -4.626533 -12.548051 nan nan nan 1.604940 0.684241 8.049850 1.061732 -2.727050 0.401771 0.837470 -0.948868 0.538993 2.395780 2.889871 -4.765044 -0.982701 -1.295930 7.415451 -27.747916 -1.118430 2.735450 -57.858924 -5.955007 12.070102 0.247804 -25.850927 17.431960 -7.454029 -7.576262 -3.629047 26.782790 5.915369 4.339391 57.352101 7.632405 15.571101 -5.957746 24.690479 3.652208 6.982605 3.592965 -4.918713 
-43.453548 -275.559906 91.303246 -177.250266 1.389464 88.039455 -1.445263 2.071281 2.762433 -2.696523 -2.972515 6.701542 6.701966 12.028347 -17.484915 nan nan nan 0.679804 -2.847316 4.433347 4.129829 1.803764 1.172080 2.324428 -4.481453 -12.823760 nan nan nan 1.728140 0.722469 8.091728 1.000286 -2.648857 0.348625 0.790438 -0.957408 0.674987 2.499299 2.863014 -4.921975 -0.867808 -1.370624 7.562538 -27.639907 -1.219006 2.658460 -58.035350 -5.936171 12.195253 0.372566 -25.876816 17.487568 -7.450286 -7.725712 -3.709750 26.607612 5.960955 4.285227 57.476271 7.693906 15.554456 -5.960793 24.564985 3.623979 6.977189 3.583847 -5.049641 
-43.541740 -275.501617 91.288063 -177.253589 1.398227 88.000870 -1.493605 2.009434 2.640013 -2.713486 -2.851295 7.097592 6.567765 12.222507 -17.869967 nan nan nan 0.531736 -2.897261 4.319115 4.294177 1.694477 1.584362 2.367748 -4.310793 -13.068792 nan nan nan 1.781994 0.814580 8.094353 0.995972 -2.636445 0.404826 0.774200 -0.977501 0.759109 2.522696 2.894098 -4.952439 -0.772333 -1.423923 7.501118 -27.623484 -1.272951 2.622088 -58.127918 -5.906435 12.204564 0.427433 -26.007617 17.479439 -7.468402 -7.765298 -3.704860 26.654118 5.902087 4.245133 57.480129 7.674238 15.438654 -6.211025 24.751219 3.500795 6.981593 3.572052 -5.032133 
-43.606033 -275.462921 91.272560 -177.229293 1.411361 88.102376 -1.572990 1.827750 2.262717 -2.699170 -2.883998 7.700128 6.728747 12.176217 -17.842792 nan nan nan 0.506152 -2.866643 4.069341 4.337967 1.705355 1.920608 2.276387 -4.352625 -13.273685 nan nan nan 1.807017 0.871559 8.015954 1.037961 -2.621249 0.351462 0.744229 -1.026717 0.785148 2.466679 2.689286 -5.291966 -0.950210 -1.809866 7.896505 -27.708935 -1.204927 2.647742 -58.117866 -5.920391 12.223529 0.467816 -26.147766 17.413016 -7.459755 -7.665201 -3.599751 26.966359 5.774192 4.246547 57.394977 7.622455 15.385676 -6.787898 24.940131 3.199549 6.976969 3.588667 -4.780265 
-43.648842 -275.434967 91.243355 -177.240950 1.486350 88.200334 -1.590712 1.641143 1.866726 -2.658750 -2.909362 8.359290 7.013627 12.157802 -17.895954 nan nan nan 0.584439 -2.837291 3.869012 4.324426 1.792622 2.149804 2.202735 -4.409774 -13.416045 nan nan nan 1.866428 0.906022 8.034986 1.069637 -2.589888 0.296126 0.754501 -0.989613 0.891863 2.528658 2.842778 -5.482139 -0.907321 -1.690544 7.833481 -27.728131 -1.141568 2.543888 -58.154007 -5.952404 12.210627 0.381550 -26.338455 17.498771 -7.426260 -7.545640 -3.495002 27.041130 5.679561 4.241643 57.377473 7.548014 15.449165 -7.069847 25.191286 3.432209 7.030174 3.597240 -4.395102 
-43.877056 -275.680847 91.229805 -178.197281 1.093823 89.381343 -2.565912 1.451914 0.004783 -2.206049 -2.056269 9.350635 8.336588 12.562607 -18.284414 nan nan nan -0.094217 -6.454525 1.947242 4.147791 5.163653 2.676876 0.821987 -3.275892 -13.027943 nan nan nan 1.801782 2.014149 6.201708 0.806059 -2.867488 1.650083 0.987858 -0.463465 -0.661502 2.087175 2.429480 -3.682159 -0.555158 -1.400094 8.181905 -28.402684 -2.362038 3.150584 -58.829035 -5.704248 11.834811 2.376188 -24.664073 15.123884 -8.602308 -9.105120 -2.519717 27.304272 7.243922 6.371949 57.168260 6.843469 15.330991 -8.826402 25.358090 1.947571 7.600439 6.493610 -2.680841 
-43.865475 -275.395630 91.171570 -177.529974 1.159506 88.735361 -2.384053 1.485518 0.789520 -2.310151 -2.563472 9.585402 8.278509 12.408924 -18.709330 nan nan nan 0.324615 -4.280563 2.725791 3.823606 3.283439 3.045521 0.957819 -4.239031 -13.829326 nan nan nan 1.370472 1.445637 6.622620 1.041115 -2.775068 1.645034 1.156546 -0.481483 -0.367348 2.512030 2.460910 -4.025055 -0.847972 -1.666674 8.592102 -28.231796 -2.409047 3.225509 -58.793064 -5.949655 11.894790 2.021999 -24.416442 15.399703 -8.311708 -9.426451 -2.419252 27.265737 7.264604 6.064685 57.229165 6.587719 15.648601 -8.740344 25.286340 2.480826 7.342002 6.856834 -2.362302 
-43.967648 -275.379791 91.176315 -177.839940 1.186843 88.923081 -2.483916 1.626321 0.467186 -2.247044 -2.448093 9.887594 8.454098 12.466670 -18.819665 nan nan nan 0.231479 -5.080946 2.243595 3.860380 4.059344 3.461702 1.028595 -3.908332 -13.753799 nan nan nan 1.459812 1.771712 6.451075 1.053083 -2.692068 1.702468 1.110207 -0.513382 -0.450328 2.526771 2.339869 -4.161330 -0.898830 -1.749043 8.826934 -28.413425 -2.497623 3.195041 -58.459983 -5.888098 11.962264 1.532909 -24.360739 15.494008 -7.936098 -9.279448 -2.172044 27.265069 7.226885 6.024263 57.173112 6.634218 15.565048 -8.610170 25.219807 2.432500 7.209836 6.822500 -2.162765 
-44.022919 -275.143799 91.149597 -177.538020 1.268684 88.515738 -2.386739 1.724443 1.001701 -2.250159 -2.732579 10.043113 8.328431 12.347677 -19.056463 nan nan nan 0.422054 -4.377880 2.892808 3.573920 2.707631 3.526437 1.225637 -3.746343 -14.188303 nan nan nan 1.388315 1.545878 6.759023 1.112888 -2.644190 1.681331 1.164177 -0.566999 -0.233518 2.622223 2.454179 -4.154699 -0.990658 -1.816536 8.714423 -28.354262 -2.474525 3.116196 -58.431023 -5.913497 11.953416 1.333158 -24.333224 15.708301 -7.923997 -9.359012 -2.168346 27.206604 7.202954 5.832340 57.324865 6.601517 15.530722 -8.682922 25.193315 2.581883 7.093302 6.875961 -2.204125 
-44.109383 -275.032806 91.132393 -177.399729 1.320747 88.514524 -2.399975 1.636174 0.973776 -2.251671 -2.875475 10.298801 8.369218 12.355624 -19.154736 nan nan nan 0.548372 -3.986565 2.659177 3.501556 2.798356 4.078460 1.110146 -4.458609 -14.488097 nan nan nan 1.380610 1.447802 6.729055 1.185326 -2.589332 1.669148 1.131355 -0.603967 -0.072168 2.624404 2.502202 -4.260961 -1.059410 -1.870130 8.708194 -28.433669 -2.388398 3.007199 -58.265849 -5.988780 11.999640 1.106003 -24.332986 15.754660 -7.795238 -9.306854 -2.267687 27.279414 7.142886 5.755555 57.273360 6.503755 15.667819 -8.884022 25.461586 2.598105 7.020567 6.871129 -2.215817 
-44.204067 -274.936127 91.109947 -177.262057 1.315183 88.530250 -2.499517 1.551312 0.903078 -2.245644 -3.020943 10.579576 8.398531 12.368427 -19.258142 nan nan nan 0.611697 -3.756504 2.416903 3.378999 2.837666 4.656185 1.008707 -4.887330 -14.764082 nan nan nan 1.338226 1.348426 6.714985 1.218173 -2.612516 1.658687 1.085133 -0.552368 -0.010011 2.745815 2.491416 -4.268250 -1.126897 -1.876202 8.701589 -28.463450 -2.323317 2.969504 -58.186928 -6.036120 12.044923 1.029640 -24.330450 15.677039 -7.794824 -9.263388 -2.322722 27.295941 7.075443 5.654560 57.295878 6.428338 15.635667 -9.077027 25.713193 1.991951 7.248452 6.749217 -2.781734 
-44.293262 -274.842621 91.085655 -177.199416 1.317164 88.567906 -2.602809 1.514370 0.815443 -2.196766 -3.117187 10.850471 8.448139 12.316784 -19.314152 nan nan nan 0.698273 -3.761869 2.134130 3.182918 2.930263 5.206973 0.907988 -5.048790 -15.009278 nan nan nan 1.278611 1.295910 6.672252 1.240356 -2.655640 1.722491 1.064914 -0.399083 -0.044536 2.947886 2.500696 -4.153936 -1.191079 -1.738966 8.612837 -28.435013 -2.347433 2.991405 -58.201943 -6.065439 12.109883 1.010501 -24.302240 15.654092 -7.883715 -9.178723 -2.372337 27.224540 7.009598 5.527260 57.400524 6.405387 15.610762 -9.197125 25.778112 1.411694 7.579235 6.571310 -3.369398 
-44.351421 -274.702820 91.053673 -177.013277 1.359181 88.446941 -2.578992 1.457099 1.048095 -2.206420 -3.266447 10.875061 8.460273 12.298910 -19.373920 nan nan nan 0.884391 -3.380490 2.084721 2.979256 2.699536 5.770591 0.802889 -5.386031 -15.401293 nan nan nan 1.132934 1.154585 6.831130 1.307945 -2.621805 1.685112 1.155301 -0.386697 0.035682 3.071893 2.610118 -4.321367 -1.257950 -1.785074 8.684280 -28.353036 -2.316903 2.952293 -58.286166 -6.115991 12.115731 0.938111 -24.273319 15.817336 -7.758787 -9.321834 -2.383333 27.152977 7.009425 5.371407 57.480631 6.268456 15.942465 -9.171455 25.545662 2.301601 7.286796 6.830395 -2.634377 
-44.426994 -274.580750 91.036942 -176.813037 1.423835 88.371667 -2.588814 1.382457 1.285894 -2.144006 -3.440463 10.757948 8.433029 12.402378 -19.489876 nan nan nan 0.993227 -3.212713 1.993851 2.902184 2.534671 6.295283 0.732731 -5.601591 -15.749083 nan nan nan 1.068527 1.073918 6.958023 1.386027 -2.605440 1.637418 1.230577 -0.506015 0.092174 3.067170 2.646811 -4.477239 -1.322395 -1.882201 8.758707 -28.353602 -2.290301 2.944370 -58.377152 -6.105407 12.140140 0.992938 -24.338414 15.744243 -7.671001 -9.440908 -2.640278 27.131583 6.988659 5.268835 57.448377 6.196387 16.001084 -9.203796 25.709553 2.307412 7.153544 6.708768 -2.808358 
-44.514709 -274.445587 91.029747 -176.551780 1.530787 88.277919 -2.571130 1.239742 1.501672 -2.098669 -3.700534 10.708696 8.363650 12.497085 -19.549398 nan nan nan 1.122990 -3.156018 1.897831 2.835700 2.385001 6.864489 0.681282 -5.719906 -16.057462 nan nan nan 1.067749 0.980242 7.080029 1.467907 -2.620695 1.612638 1.290273 -0.629844 0.145003 3.051724 2.679851 -4.502479 -1.291024 -1.892357 8.777755 -28.400599 -2.315170 2.984348 -58.463533 -6.095683 12.146325 1.165464 -24.371890 15.562135 -7.563095 -9.566274 -2.959199 27.122348 6.950505 5.233355 57.413281 6.100495 15.959883 -9.312987 25.965598 2.277384 7.024134 6.613666 -2.975661 
-44.580482 -274.311005 91.007973 -176.399336 1.548873 88.183898 -2.587395 1.160451 1.622816 -2.158323 -3.943871 10.853668 8.315245 12.512034 -19.717594 nan nan nan 1.236239 -3.067905 1.638249 2.600028 2.164218 7.744757 0.606672 -5.785783 -16.413092 nan nan nan 0.988068 0.867207 7.231335 1.498524 -2.596650 1.567705 1.308046 -0.652269 0.228289 3.135587 2.742605 -4.515474 -1.218324 -1.875463 8.701019 -28.337092 -2.339996 2.965820 -58.502088 -6.109000 12.173560 1.142700 -24.356231 15.634004 -7.526356 -9.650245 -3.002471 27.002914 6.932429 5.153502 57.553671 6.056319 15.931459 -9.348380 26.022356 2.383353 7.004871 6.687367 -3.081068 
-44.656292 -274.193604 90.972725 -176.335684 1.530676 88.173104 -2.656730 1.180303 1.613348 -2.176996 -4.087374 11.105743 8.360266 12.483115 -19.981213 nan nan nan 1.296129 -2.854420 1.145535 2.422388 1.843411 8.920775 0.622116 -5.854094 -16.868817 nan nan nan 0.905025 0.740375 7.345939 1.516326 -2.555799 1.485178 1.294397 -0.629323 0.297828 3.290040 2.818144 -4.544638 -1.287863 -1.852350 8.654442 -28.274365 -2.391152 2.982600 -58.489883 -6.049074 12.197032 1.103575 -24.451084 15.747927 -7.528862 -9.606718 -2.796980 26.887861 7.044112 5.170850 57.660368 6.007121 15.972913 -9.451600 26.006011 2.380929 7.094764 6.785671 -3.150801 
